<svg width="161" height="21" xmlns="http://www.w3.org/2000/svg" fill="none">
 <defs>
  <linearGradient spreadMethod="pad" y2="0.5" x2="1" y1="0.5" x1="0" id="svg_7">
   <stop stop-opacity="0.99609" stop-color="#aa56ff" offset="0"/>
   <stop stop-opacity="0.99609" stop-color="#ff00ff" offset="1"/>
  </linearGradient>
 </defs>
 <g>
  <title>Layer 1</title>
  <rect id="svg_1" fill="rgba(249, 249, 249, 1)" height="0" width="0" y="0" x="0"/>
  <rect id="svg_2" fill="url(#svg_7)" rx="10" height="20" width="160" y="0.5" x="0.5"/>
  <path id="svg_3" d="m10.5,0l140,0c5.799,0 10.5,4.70101 10.5,10.5c0,5.799 -4.701,10.5 -10.5,10.5l-140,0c-5.79899,0 -10.5,-4.701 -10.5,-10.5q0,-4.34924 3.07538,-7.42462q3.07538,-3.07538 7.42462,-3.07538l0,0zm0,1q-3.93503,0 -6.71751,2.78249q-2.78249,2.78248 -2.78249,6.71751c0,5.2467 4.2533,9.5 9.5,9.5l140,0c5.247,0 9.5,-4.2533 9.5,-9.5c0,-5.2467 -4.253,-9.5 -9.5,-9.5l-140,0l0,0z" fill="rgba(255, 255, 255, 1)"/>
  <path fill="#ffffff" stroke-width="0.9" id="svg_8" d="m44.23208,3.46667c-5.28288,0 -9.56542,3.2121 -9.56542,7.17381c0,1.35375 0.50629,2.6189 1.37734,3.69948l-1.37734,3.01978l3.83503,-0.98368c1.59809,0.8987 3.57816,1.43874 5.73039,1.43874c5.28287,0 9.56543,-3.21211 9.56543,-7.17432s-4.28255,-7.17381 -9.56543,-7.17381l0,0zm-1.56878,9.92874l-1.59745,1.59614l-4.39318,-4.39383l4.39253,-4.39486l1.59811,1.59979l-2.79509,2.79507l2.79509,2.79769zm4.83132,1.59406l-1.59679,-1.59823l2.79586,-2.79455l-2.79586,-2.79561l1.59679,-1.59823l4.39319,4.3907l-4.39319,4.39591z"/>
  <text font-weight="bold" xml:space="preserve" text-anchor="start" font-family="Noto Sans JP" font-size="12" id="svg_11" y="15" x="92" fill="#ffffff">AI辅助</text>
 </g>
</svg>