<svg xmlns="http://www.w3.org/2000/svg" xmlns:xlink="http://www.w3.org/1999/xlink" width="161" height="21" viewBox="0 0 161 21" fill="none">
<rect x="0" y="0" width="0" height="0" fill="rgba(249, 249, 249, 1)" />
<rect  x="0.5" y="0.5" width="160" height="20" rx="10"    fill="url(#linear_fill_0_3_0)" >
</rect>
<path   fill="rgba(255, 255, 255, 1)"  d="M10.5 0L150.5 0C156.299 0 161 4.70101 161 10.5C161 16.299 156.299 21 150.5 21L10.5 21C4.70101 21 0 16.299 0 10.5Q0 6.15076 3.07538 3.07538Q6.15076 0 10.5 9.53674e-07L10.5 0ZM10.5 1Q6.56497 1 3.78249 3.78249Q1 6.56497 1 10.5C1 15.7467 5.2533 20 10.5 20L150.5 20C155.747 20 160 15.7467 160 10.5C160 5.2533 155.747 1 150.5 1L10.5 1L10.5 1Z">
</path>
<path d="M34.5 10.5L36.1667 8.83333L39.5 12.1667L46.1667 5.5L47.8333 7.16667L39.5 15.5L34.5 10.5Z" stroke="rgba(255, 255, 255, 1)" stroke-width="1.3333333333333333" stroke-linejoin="round" stroke-linecap="round" >
</path>
<g >
<path     fill="#FFFFFF"  d="M102.492 7.54L100.872 7.54Q100.968 7.72 101.064 7.888Q101.16 8.056 101.232 8.176L100.14 8.608L102.012 8.608L102.012 14.464Q102.012 14.968 101.97 15.304Q101.928 15.64 101.778 15.844Q101.628 16.048 101.34 16.15Q101.052 16.252 100.572 16.3L99.576 16.396L99.144 15.124L100.02 15.052Q100.38 15.028 100.458 14.872Q100.536 14.716 100.536 14.332L100.536 9.784L95.724 9.784L95.724 8.608L99.948 8.608Q99.828 8.368 99.684 8.086Q99.54 7.804 99.408 7.54L98.748 7.54Q98.592 7.816 98.43 8.074Q98.268 8.332 98.088 8.584L96.828 7.948Q96.912 7.852 96.984 7.744Q97.056 7.636 97.128 7.54L96.216 7.54Q96.312 7.732 96.39 7.912Q96.468 8.092 96.528 8.236L95.244 8.644L94.776 7.54L94.284 7.54Q93.972 7.996 93.636 8.41Q93.3 8.824 92.988 9.172L91.884 8.284Q92.184 7.984 92.508 7.594Q92.832 7.204 93.12 6.802Q93.408 6.4 93.648 6.022Q93.888 5.644 94.02 5.344L95.46 5.596Q95.388 5.752 95.298 5.914Q95.208 6.076 95.112 6.244L97.44 6.244L97.44 7.06Q97.704 6.64 97.914 6.22Q98.124 5.8 98.304 5.356L99.696 5.632Q99.636 5.788 99.564 5.938Q99.492 6.088 99.42 6.244L102.492 6.244L102.492 7.54ZM94.2 8.248Q94.524 8.488 94.83 8.734Q95.136 8.98 95.484 9.316L94.704 10.348Q94.404 10.036 94.068 9.712Q93.732 9.388 93.42 9.148L94.2 8.248ZM92.796 9.952L94.236 10.012L94.236 16.24L92.796 16.24L92.796 9.952ZM99.744 14.956L95.04 14.956L95.04 10.264L99.744 10.264L99.744 14.956ZM96.36 11.512L96.36 11.992L98.424 11.992L98.424 11.512L96.36 11.512ZM98.424 13.72L98.424 13.192L96.36 13.192L96.36 13.72L98.424 13.72ZM114.276 14.452L109.956 14.452L109.956 16.204L108.492 16.204L108.492 14.452L104.136 14.452L104.136 13.072L108.492 13.072L108.492 12.388L105.036 12.388L105.036 6.892L106.704 6.892L106.272 5.656L107.916 5.536L108.288 6.892L110.148 6.892L110.604 5.548L112.212 5.668L111.72 6.892L113.4 6.892L113.4 12.388L109.956 12.388L109.956 13.072L114.276 13.072L114.276 14.452ZM106.488 8.212L106.488 9.028L108.492 9.028L108.492 8.212L106.488 8.212ZM111.936 8.212L109.956 8.212L109.956 9.028L111.936 9.028L111.936 8.212ZM108.492 11.08L108.492 10.324L106.488 10.324L106.488 11.08L108.492 11.08ZM111.936 11.08L111.936 10.324L109.956 10.324L109.956 11.08L111.936 11.08Z">
</path>
</g>
<defs>
<linearGradient id="linear_fill_0_3_0" x1="0.5" y1="10.5" x2="160.5" y2="10.5" gradientUnits="userSpaceOnUse">
<stop offset="0" stop-color="#43CF7C"  />
<stop offset="1" stop-color="#2A82E4"  />
</linearGradient>
</defs>
</svg>
