<svg xmlns="http://www.w3.org/2000/svg" xmlns:xlink="http://www.w3.org/1999/xlink" width="160" height="20" viewBox="0 0 160 20" fill="none">
<rect x="0" y="0" width="0" height="0" fill="rgba(249, 249, 249, 1)" />
<g  clip-path="url(#clip-path-0_1)">
<rect  x="0" y="0" width="160" height="20" rx="10"    fill="url(#linear_fill_0_4_0)" >
</rect>
<path   fill="rgba(255, 255, 255, 1)"  d="M10 -0.5L150 -0.5C155.799 -0.5 160.5 4.20101 160.5 10C160.5 15.799 155.799 20.5 150 20.5L10 20.5C4.20101 20.5 -0.5 15.799 -0.5 10Q-0.5 5.65076 2.57538 2.57538Q5.65076 -0.5 10 -0.499999L10 -0.5ZM10 0.500001Q6.06497 0.500002 3.28249 3.28249Q0.5 6.06497 0.5 10C0.5 15.2467 4.7533 19.5 10 19.5L150 19.5C155.247 19.5 159.5 15.2467 159.5 10C159.5 4.7533 155.247 0.5 150 0.5L10 0.5L10 0.500001Z">
</path>
<path d="M37.6667 10.3333C37.6667 8.4924 39.1591 7 41 7C42.8409 7 44.3333 8.4924 44.3333 10.3333L44.3333 15.6667L37.6667 15.6667L37.6667 10.3333Z" stroke="rgba(255, 255, 255, 1)" stroke-width="1.3333333333333333" stroke-linejoin="round"  >
</path>
<path    stroke="rgba(255, 255, 255, 1)" stroke-width="1.3333333333333333" stroke-linejoin="round" stroke-linecap="round"  d="M41 3.66667L41 4.66667">
</path>
<path    stroke="rgba(255, 255, 255, 1)" stroke-width="1.3333333333333333" stroke-linejoin="round" stroke-linecap="round"  d="M44.9639 5.10941L44.3211 5.87547">
</path>
<path    stroke="rgba(255, 255, 255, 1)" stroke-width="1.3333333333333333" stroke-linejoin="round" stroke-linecap="round"  d="M47.0729 8.76243L46.0881 8.9361">
</path>
<path    stroke="rgba(255, 255, 255, 1)" stroke-width="1.3333333333333333" stroke-linejoin="round" stroke-linecap="round"  d="M34.9271 8.76247L35.9119 8.9361">
</path>
<path    stroke="rgba(255, 255, 255, 1)" stroke-width="1.3333333333333333" stroke-linejoin="round" stroke-linecap="round"  d="M37.0362 5.10934L37.679 5.8754">
</path>
<path    stroke="rgba(255, 255, 255, 1)" stroke-width="1.3333333333333333" stroke-linejoin="round" stroke-linecap="round"  d="M35 15.6667L47.3333 15.6667">
</path>
<g >
<path     fill="#FFFFFF"  d="M101.704 5.408L101.704 15.584L92.164 15.584L92.164 5.408L101.704 5.408ZM100.264 6.836L93.616 6.836L93.616 11.816Q94.3 11.288 94.87 10.706Q95.44 10.124 95.848 9.488L93.988 9.488L93.988 8.084L96.232 8.084L96.232 7.1L97.636 7.16L97.636 8.084L99.868 8.084L99.868 9.488L97.636 9.488L97.636 10.244L98.032 9.776Q98.26 9.968 98.566 10.226Q98.872 10.484 99.178 10.766Q99.484 11.048 99.766 11.318Q100.048 11.588 100.24 11.792L99.388 12.98Q99.22 12.8 99.004 12.578Q98.788 12.356 98.554 12.122Q98.32 11.888 98.086 11.66Q97.852 11.432 97.636 11.24L97.636 13.688L96.232 13.688L96.232 11.192Q95.824 11.756 95.35 12.278Q94.876 12.8 94.36 13.22L93.616 12.2L93.616 14.156L100.264 14.156L100.264 6.836ZM113.896 14.264L113.896 15.608L107.776 15.608L107.776 9.944Q107.692 10.088 107.608 10.22Q107.524 10.352 107.44 10.484L106.888 9.752Q106.792 10.1 106.684 10.448Q106.576 10.796 106.444 11.132Q106.804 11.888 107.146 12.62Q107.488 13.352 107.764 13.976L106.564 14.756Q106.372 14.312 106.156 13.826Q105.94 13.34 105.712 12.824Q105.4 13.472 105.022 14.12Q104.644 14.768 104.188 15.452L103.072 14.552Q103.648 13.724 104.122 12.878Q104.596 12.032 104.968 11.18Q104.584 10.352 104.218 9.608Q103.852 8.864 103.564 8.324L104.716 7.736Q104.908 8.084 105.136 8.516Q105.364 8.948 105.604 9.428Q105.94 8.348 106.06 7.304L103.804 7.304L103.804 5.864L107.404 5.864L107.404 7.304L107.224 8.372Q107.68 7.568 108.004 6.686Q108.328 5.804 108.508 4.976L109.864 5.252Q109.768 5.588 109.66 5.936Q109.552 6.284 109.42 6.632L110.716 6.632L110.404 5.348L111.784 5.276L112.072 6.632L113.788 6.632L113.788 7.988L111.856 7.988L111.856 9.164L113.536 9.164L113.536 10.448L111.856 10.448L111.856 11.684L113.536 11.684L113.536 13.016L111.856 13.016L111.856 14.264L113.896 14.264ZM110.5 7.988L109.12 7.988L109.12 9.164L110.5 9.164L110.5 7.988ZM110.5 10.448L109.12 10.448L109.12 11.684L110.5 11.684L110.5 10.448ZM109.12 14.264L110.5 14.264L110.5 13.016L109.12 13.016L109.12 14.264Z">
</path>
</g>
</g>
<defs>
<clipPath id="clip-path-0_1">
<path d="M0 20L160 20L160 0L0 0L0 20Z" fill="white"/>
</clipPath>
<linearGradient id="linear_fill_0_4_0" x1="0" y1="10" x2="160" y2="10" gradientUnits="userSpaceOnUse">
<stop offset="0" stop-color="#D43030"  />
<stop offset="1" stop-color="#FF5733"  />
</linearGradient>
</defs>
</svg>
