<svg xmlns="http://www.w3.org/2000/svg" xmlns:xlink="http://www.w3.org/1999/xlink" width="160" height="20" viewBox="0 0 160 20" fill="none">
<rect x="0" y="0" width="0" height="0" fill="rgba(249, 249, 249, 1)" />
<g  clip-path="url(#clip-path-0_1)">
<rect  x="0" y="0" width="160" height="20" rx="10"    fill="url(#linear_fill_0_2_0)" >
</rect>
<path   fill="rgba(255, 255, 255, 1)"  d="M10 -0.5L150 -0.5C155.799 -0.5 160.5 4.20101 160.5 10C160.5 15.799 155.799 20.5 150 20.5L10 20.5C4.20101 20.5 -0.5 15.799 -0.5 10Q-0.5 5.65076 2.57538 2.57538Q5.65076 -0.5 10 -0.499999L10 -0.5ZM10 0.500001Q6.06497 0.500002 3.28249 3.28249Q0.5 6.06497 0.5 10C0.5 15.2467 4.7533 19.5 10 19.5L150 19.5C155.247 19.5 159.5 15.2467 159.5 10C159.5 4.7533 155.247 0.5 150 0.5L10 0.5L10 0.500001Z">
</path>
<path d="M46.6667 4.66667L33.3333 4.66667L33.3333 14.6667L38.3333 14.6667L40 16.3333L41.6667 14.6667L46.6667 14.6667L46.6667 4.66667Z" stroke="rgba(255, 255, 255, 1)" stroke-width="1.3333333333333333" stroke-linejoin="round" stroke-linecap="round" >
</path>
<path    stroke="rgba(255, 255, 255, 1)" stroke-width="1.3333333333333333"  stroke-linecap="round"  d="M40 9.66667L40 12.6667">
</path>
<path    stroke="rgba(255, 255, 255, 1)" stroke-width="1.3333333333333333"  stroke-linecap="round"  d="M40 7.33333L40 7.66667">
</path>
<g >
<path     fill="#FFFFFF"  d="M93.736 8.288Q93.592 8.084 93.37 7.79Q93.148 7.496 92.902 7.184Q92.656 6.872 92.416 6.59Q92.176 6.308 92.008 6.116L93.052 5.096Q93.22 5.264 93.46 5.534Q93.7 5.804 93.952 6.104Q94.204 6.404 94.444 6.698Q94.684 6.992 94.852 7.22L93.736 8.288ZM97.564 6.824Q96.916 6.872 96.31 6.902Q95.704 6.932 95.2 6.956L95.092 5.684Q95.812 5.66 96.658 5.606Q97.504 5.552 98.35 5.48Q99.196 5.408 99.958 5.336Q100.72 5.264 101.26 5.192L101.44 6.452Q100.984 6.512 100.366 6.572Q99.748 6.632 99.052 6.692L99.052 7.7L101.848 7.7L101.848 9.092L99.052 9.092L99.052 9.872L101.332 9.872L101.332 13.652L95.284 13.652L95.284 9.872L97.564 9.872L97.564 9.092L94.756 9.092L94.756 7.7L97.564 7.7L97.564 6.824ZM97.012 14.132Q99.664 14.24 102.316 14.06L101.992 15.488Q100.684 15.584 99.406 15.596Q98.128 15.608 96.82 15.548Q96.22 15.524 95.77 15.47Q95.32 15.416 94.948 15.29Q94.576 15.164 94.264 14.942Q93.952 14.72 93.64 14.348Q93.52 14.48 93.352 14.654Q93.184 14.828 92.998 15.008Q92.812 15.188 92.626 15.362Q92.44 15.536 92.296 15.656L91.408 14.468Q91.804 14.12 92.176 13.772Q92.548 13.424 92.896 13.04L92.896 10.304L91.768 10.304L91.768 8.876L94.312 8.876L94.312 13.04Q94.528 13.364 94.774 13.568Q95.02 13.772 95.344 13.886Q95.668 14 96.076 14.054Q96.484 14.108 97.012 14.132ZM99.868 11.24L96.736 11.24L96.736 12.26L99.868 12.26L99.868 11.24ZM113.38 12.5L109.54 12.5L109.54 15.848L107.968 15.848L107.968 12.5L104.044 12.5L104.044 7.004L107.968 7.004L107.968 5.048L109.54 5.108L109.54 7.004L113.38 7.004L113.38 12.5ZM107.968 10.988L107.968 8.528L105.64 8.528L105.64 10.988L107.968 10.988ZM111.796 8.528L109.54 8.528L109.54 10.988L111.796 10.988L111.796 8.528Z">
</path>
</g>
</g>
<defs>
<clipPath id="clip-path-0_1">
<path d="M0 20L160 20L160 0L0 0L0 20Z" fill="white"/>
</clipPath>
<linearGradient id="linear_fill_0_2_0" x1="0" y1="10" x2="160" y2="10" gradientUnits="userSpaceOnUse">
<stop offset="0" stop-color="#FF8D1A"  />
<stop offset="1" stop-color="#FFEB3B"  />
</linearGradient>
</defs>
</svg>
